<?xml version="1.0" standalone="no"?>
<!DOCTYPE svg PUBLIC "-//W3C//DTD SVG 20010904//EN"
 "http://www.w3.org/TR/2001/REC-SVG-20010904/DTD/svg10.dtd">
<svg version="1.0" xmlns="http://www.w3.org/2000/svg"
 width="260.000000pt" height="260.000000pt" viewBox="0 0 260.000000 260.000000"
 preserveAspectRatio="xMidYMid meet">
<metadata>
Created by potrace 1.11, written by Peter Selinger 2001-2013
</metadata>
<g transform="translate(0.000000,260.000000) scale(0.100000,-0.100000)"
fill="#000000" stroke="none">
<path d="M1161 2357 c-21 -67 -83 -257 -136 -422 -54 -165 -99 -302 -101 -304
-3 -3 -201 -6 -442 -6 -240 -1 -439 -3 -440 -4 -5 -1 42 -36 338 -251 317
-230 370 -270 370 -276 0 -5 -65 -206 -201 -618 -37 -116 -67 -212 -64 -214 5
-5 15 2 420 297 160 116 293 211 296 211 5 0 635 -455 671 -484 38 -33 64 -38
175 -38 63 0 116 2 119 4 2 3 -5 31 -15 64 -11 32 -65 201 -121 374 -56 173
-109 337 -118 364 -13 41 -13 50 -1 57 44 25 683 496 686 505 2 7 -130 10
-419 10 -233 -1 -430 0 -439 2 -17 4 -13 -7 -104 272 -36 113 -93 289 -127
392 l-61 186 -123 0 -123 0 -40 -121z m181 -582 c39 -121 75 -223 80 -226 4
-3 161 -5 348 -4 187 0 340 -2 339 -5 0 -3 -77 -61 -172 -130 -399 -289 -387
-279 -378 -303 5 -12 43 -130 86 -262 42 -132 88 -270 101 -308 13 -37 21 -67
19 -67 -6 0 -438 313 -526 380 l-35 28 -280 -203 c-153 -112 -280 -202 -282
-200 -3 3 111 363 183 580 22 66 23 71 7 86 -9 9 -136 103 -281 208 -145 105
-262 191 -260 192 2 1 158 2 346 3 188 0 344 3 346 6 3 3 51 147 108 320 56
173 104 319 107 325 3 5 21 -38 39 -95 19 -58 66 -204 105 -325z"/>
</g>
</svg>
