<?xml version="1.0" encoding="UTF-8" standalone="no"?>
<!DOCTYPE svg PUBLIC "-//W3C//DTD SVG 1.1//EN" "http://www.w3.org/Graphics/SVG/1.1/DTD/svg11.dtd">
<svg width="100%" height="100%" viewBox="0 0 1600 1400" version="1.1" xmlns="http://www.w3.org/2000/svg" xmlns:xlink="http://www.w3.org/1999/xlink" xml:space="preserve" xmlns:serif="http://www.serif.com/" style="fill-rule:evenodd;clip-rule:evenodd;stroke-linejoin:round;stroke-miterlimit:1.41421;">
    <g id="g14" transform="matrix(4.55814,0,0,-4.19684,114.023,1184.12)">
        <g id="path22" transform="matrix(1,0,0,1,264.15,54.6875)">
            <path d="M-0.012,0L-90.312,0L-90.312,18.854L-19.896,18.854L-19.896,27.604L-90.312,27.604L-90.312,42.395L-19.896,42.395L-19.896,51.145L-90.312,51.145L-90.312,75.461C-84.639,68.809 -76.201,64.584 -66.771,64.584C-49.685,64.584 -35.835,78.435 -35.835,95.52L-66.771,95.52L-66.771,126.456C-76.201,126.456 -84.639,122.231 -90.312,115.579L-90.312,150L0,150L-0.012,0ZM0,157.5L-90.312,157.5L-90.312,181.093L-220.937,158.429L-220.937,-13.431L-90.312,-36.095L-90.312,-7.5L0,-7.5C4.136,-7.5 7.5,-4.136 7.5,0L7.5,150C7.5,154.136 4.136,157.5 0,157.5" style="fill:rgb(203,74,50);fill-rule:nonzero;"/>
        </g>
        <g id="path26" transform="matrix(1,0,0,1,202.17,185.52)">
            <path d="M0,0L0,-30.936L30.936,-30.936C30.936,-13.851 17.086,0 0,0" style="fill:rgb(203,74,50);fill-rule:nonzero;"/>
        </g>
        <g id="path30" transform="matrix(1,0,0,1,98.4845,128.511)">
            <path d="M0,0C5.211,-0.4 10.301,-1.374 13.466,4.029C15.859,8.105 15.658,15.554 12.883,18.686C9.294,22.736 4.658,22.159 0,21.421L0,0ZM-0.367,-38.35L-13.451,-38.35L-13.451,34.677C-3.357,34.677 6.685,34.961 16.69,34.486C19.32,34.361 22.374,32.406 24.315,30.401C31.745,22.73 31.746,13.174 29.526,3.642C27.548,-4.846 22.071,-10.819 13.44,-12.919C9.14,-13.965 4.539,-13.773 -0.367,-14.176L-0.367,-38.35Z" style="fill:white;"/>
        </g>
    </g>
</svg>
