<?xml version="1.0" encoding="UTF-8" standalone="no"?>
<!DOCTYPE svg PUBLIC "-//W3C//DTD SVG 1.1//EN" "http://www.w3.org/Graphics/SVG/1.1/DTD/svg11.dtd">
<svg width="100%" height="100%" viewBox="0 0 2500 2442" version="1.1" xmlns="http://www.w3.org/2000/svg" xmlns:xlink="http://www.w3.org/1999/xlink" xml:space="preserve" xmlns:serif="http://www.serif.com/" style="fill-rule:evenodd;clip-rule:evenodd;stroke-linejoin:round;stroke-miterlimit:1.41421;">
    <g transform="matrix(0.638726,0,0,0.585176,492.093,298)">
        <path d="M1306.55,0L1476.36,0L1476.36,227.163C1780.19,228.867 2083.74,224.028 2387.3,228.867C2452.04,222.324 2502.86,272.595 2496.91,337.337C2501.72,896.725 2495.77,1456.39 2499.75,2015.77C2496.91,2073.13 2505.43,2136.74 2472.19,2187.55C2430.74,2217.09 2377.06,2213.41 2328.81,2215.66C2044.54,2214.27 1760.58,2214.84 1476.36,2214.84L1476.36,2442L1298.9,2442C866.742,2363.06 433.407,2290.66 0.389,2214.84C0.094,1552.38 0.389,889.91 0.389,227.731C435.655,151.631 871.263,77.531 1306.58,0L1306.55,0Z" style="fill:rgb(42,86,153);fill-rule:nonzero;"/>
    </g>
    <g transform="matrix(0.638726,0,0,0.585176,492.093,298)">
        <path d="M1476.36,312.349L2413.4,312.349L2413.4,2129.65L1476.36,2129.65L1476.36,1902.49L2214.64,1902.49L2214.64,1788.91L1476.36,1788.91L1476.36,1646.93L2214.64,1646.93L2214.64,1533.35L1476.36,1533.35L1476.36,1391.37L2214.64,1391.37L2214.64,1277.79L1476.36,1277.79L1476.36,1135.81L2214.64,1135.81L2214.64,1022.23L1476.36,1022.23L1476.36,880.256L2214.64,880.256L2214.64,766.674L1476.36,766.674L1476.36,624.698L2214.64,624.698L2214.64,511.116L1476.36,511.116L1476.36,312.349ZM587.014,814.083C640.965,810.971 694.916,808.7 748.868,805.86C786.622,997.54 825.24,1188.9 866.129,1379.72C898.227,1182.65 933.733,986.159 968.057,789.391C1024.85,787.414 1081.64,784.28 1138.16,780.872C1073.98,1056.01 1017.76,1333.45 947.612,1606.88C900.181,1631.6 829.192,1605.75 772.969,1609.72C735.192,1421.77 691.191,1234.9 657.389,1046.09C624.178,1229.52 581.017,1411.25 542.967,1593.57C488.448,1590.73 433.656,1587.32 378.819,1583.62C331.706,1333.74 276.323,1085.57 232.322,835.119C280.867,832.847 329.707,830.848 378.274,829.144C407.51,1010.01 440.744,1190.06 466.3,1371.2C506.394,1185.52 547.261,999.812 587.014,814.083Z" style="fill:white;fill-rule:nonzero;"/>
    </g>
</svg>
